
<svg version="1.1" width="256" height="256" xmlns="http://www.w3.org/2000/svg">

  <rect width="100%" height="100%" fill="#ECEFF4" rx="30" />
  <line x1="0" x2="256" y1="224" y2="224" stroke="#2E3440" stroke-width="3" />
  <line x1="128" x2="128" y1="0" y2="256" stroke="#2E3440" stroke-width="3" />


  <line x1="0" x2="256" y1="32" y2="32" stroke-dasharray="5,3" stroke="#434C5E" stroke-width="3" />

  <polyline points="0,224.00 1,221.00 2,218.00 3,215.00 4,212.00 5,209.00 6,206.00 7,203.00 8,200.00 9,197.00 10,194.00 11,191.00 12,188.00 13,185.00 14,182.00 15,179.00 16,176.00 17,173.00 18,170.00 19,167.00 20,164.00 21,161.00 22,158.00 23,155.00 24,152.00 25,149.00 26,146.00 27,143.00 28,140.00 29,137.00 30,134.00 31,131.00 32,128.00 33,125.00 34,122.00 35,119.00 36,116.00 37,113.00 38,110.00 39,107.00 40,104.00 41,101.00 42,98.00 43,95.00 44,92.00 45,89.00 46,86.00 47,83.00 48,80.00 49,77.00 50,74.00 51,71.00 52,68.00 53,65.00 54,62.00 55,59.00 56,56.00 57,53.00 58,50.00 59,47.00 60,44.00 61,41.00 62,38.00 63,35.00 64,32.00 65,32.00 66,32.00 67,32.00 68,32.00 69,32.00 70,32.00 71,32.00 72,32.00 73,32.00 74,32.00 75,32.00 76,32.00 77,32.00 78,32.00 79,32.00 80,32.00 81,32.00 82,32.00 83,32.00 84,32.00 85,32.00 86,32.00 87,32.00 88,32.00 89,32.00 90,32.00 91,32.00 92,32.00 93,32.00 94,32.00 95,32.00 96,32.00 97,32.00 98,32.00 99,32.00 100,32.00 101,32.00 102,32.00 103,32.00 104,32.00 105,32.00 106,32.00 107,32.00 108,32.00 109,32.00 110,32.00 111,32.00 112,32.00 113,32.00 114,32.00 115,32.00 116,32.00 117,32.00 118,32.00 119,32.00 120,32.00 121,32.00 122,32.00 123,32.00 124,32.00 125,32.00 126,32.00 127,32.00 128,32.00 129,32.00 130,32.00 131,32.00 132,32.00 133,32.00 134,32.00 135,32.00 136,32.00 137,32.00 138,32.00 139,32.00 140,32.00 141,32.00 142,32.00 143,32.00 144,32.00 145,32.00 146,32.00 147,32.00 148,32.00 149,32.00 150,32.00 151,32.00 152,32.00 153,32.00 154,32.00 155,32.00 156,32.00 157,32.00 158,32.00 159,32.00 160,32.00 161,32.00 162,32.00 163,32.00 164,32.00 165,32.00 166,32.00 167,32.00 168,32.00 169,32.00 170,32.00 171,32.00 172,32.00 173,32.00 174,32.00 175,32.00 176,32.00 177,32.00 178,32.00 179,32.00 180,32.00 181,32.00 182,32.00 183,32.00 184,32.00 185,32.00 186,32.00 187,32.00 188,32.00 189,32.00 190,32.00 191,32.00 192,32.00 193,35.00 194,38.00 195,41.00 196,44.00 197,47.00 198,50.00 199,53.00 200,56.00 201,59.00 202,62.00 203,65.00 204,68.00 205,71.00 206,74.00 207,77.00 208,80.00 209,83.00 210,86.00 211,89.00 212,92.00 213,95.00 214,98.00 215,101.00 216,104.00 217,107.00 218,110.00 219,113.00 220,116.00 221,119.00 222,122.00 223,125.00 224,128.00 225,131.00 226,134.00 227,137.00 228,140.00 229,143.00 230,146.00 231,149.00 232,152.00 233,155.00 234,158.00 235,161.00 236,164.00 237,167.00 238,170.00 239,173.00 240,176.00 241,179.00 242,182.00 243,185.00 244,188.00 245,191.00 246,194.00 247,197.00 248,200.00 249,203.00 250,206.00 251,209.00 252,212.00 253,215.00 254,218.00 255,221.00 256,224.00" stroke="#BF616A" stroke-width="5" fill="none"/>

</svg>
