
<svg version="1.1" width="512" height="256" xmlns="http://www.w3.org/2000/svg">

  <rect width="100%" height="100%" fill="#ECEFF4" rx="30" />
  <line x1="0" x2="512" y1="224" y2="224" stroke="#2E3440" stroke-width="3" />
  <line x1="256" x2="256" y1="0" y2="256" stroke="#2E3440" stroke-width="3" />


  <line x1="0" x2="512" y1="32" y2="32" stroke-dasharray="5,3" stroke="#434C5E" stroke-width="3" />

  <polyline points="0,224.00 1,223.97 2,223.88 3,223.74 4,223.54 5,223.28 6,222.96 7,222.59 8,222.16 9,221.67 10,221.12 11,220.52 12,219.87 13,219.15 14,218.39 15,217.57 16,216.69 17,215.76 18,214.78 19,213.75 20,212.66 21,211.53 22,210.34 23,209.11 24,207.82 25,206.49 26,205.11 27,203.68 28,202.21 29,200.69 30,199.13 31,197.53 32,195.88 33,194.20 34,192.47 35,190.70 36,188.90 37,187.06 38,185.19 39,183.28 40,181.33 41,179.36 42,177.35 43,175.32 44,173.25 45,171.16 46,169.05 47,166.90 48,164.74 49,162.55 50,160.34 51,158.11 52,155.87 53,153.60 54,151.33 55,149.03 56,146.73 57,144.41 58,142.09 59,139.75 60,137.41 61,135.06 62,132.71 63,130.36 64,128.00 65,125.64 66,123.29 67,120.94 68,118.59 69,116.25 70,113.91 71,111.59 72,109.27 73,106.97 74,104.67 75,102.40 76,100.13 77,97.89 78,95.66 79,93.45 80,91.26 81,89.10 82,86.95 83,84.84 84,82.75 85,80.68 86,78.65 87,76.64 88,74.67 89,72.72 90,70.81 91,68.94 92,67.10 93,65.30 94,63.53 95,61.80 96,60.12 97,58.47 98,56.87 99,55.31 100,53.79 101,52.32 102,50.89 103,49.51 104,48.18 105,46.89 106,45.66 107,44.47 108,43.34 109,42.25 110,41.22 111,40.24 112,39.31 113,38.43 114,37.61 115,36.85 116,36.13 117,35.48 118,34.88 119,34.33 120,33.84 121,33.41 122,33.04 123,32.72 124,32.46 125,32.26 126,32.12 127,32.03 128,32.00 129,32.00 130,32.00 131,32.00 132,32.00 133,32.00 134,32.00 135,32.00 136,32.00 137,32.00 138,32.00 139,32.00 140,32.00 141,32.00 142,32.00 143,32.00 144,32.00 145,32.00 146,32.00 147,32.00 148,32.00 149,32.00 150,32.00 151,32.00 152,32.00 153,32.00 154,32.00 155,32.00 156,32.00 157,32.00 158,32.00 159,32.00 160,32.00 161,32.00 162,32.00 163,32.00 164,32.00 165,32.00 166,32.00 167,32.00 168,32.00 169,32.00 170,32.00 171,32.00 172,32.00 173,32.00 174,32.00 175,32.00 176,32.00 177,32.00 178,32.00 179,32.00 180,32.00 181,32.00 182,32.00 183,32.00 184,32.00 185,32.00 186,32.00 187,32.00 188,32.00 189,32.00 190,32.00 191,32.00 192,32.00 193,32.00 194,32.00 195,32.00 196,32.00 197,32.00 198,32.00 199,32.00 200,32.00 201,32.00 202,32.00 203,32.00 204,32.00 205,32.00 206,32.00 207,32.00 208,32.00 209,32.00 210,32.00 211,32.00 212,32.00 213,32.00 214,32.00 215,32.00 216,32.00 217,32.00 218,32.00 219,32.00 220,32.00 221,32.00 222,32.00 223,32.00 224,32.00 225,32.00 226,32.00 227,32.00 228,32.00 229,32.00 230,32.00 231,32.00 232,32.00 233,32.00 234,32.00 235,32.00 236,32.00 237,32.00 238,32.00 239,32.00 240,32.00 241,32.00 242,32.00 243,32.00 244,32.00 245,32.00 246,32.00 247,32.00 248,32.00 249,32.00 250,32.00 251,32.00 252,32.00 253,32.00 254,32.00 255,32.00 256,32.00 257,32.00 258,32.00 259,32.00 260,32.00 261,32.00 262,32.00 263,32.00 264,32.00 265,32.00 266,32.00 267,32.00 268,32.00 269,32.00 270,32.00 271,32.00 272,32.00 273,32.00 274,32.00 275,32.00 276,32.00 277,32.00 278,32.00 279,32.00 280,32.00 281,32.00 282,32.00 283,32.00 284,32.00 285,32.00 286,32.00 287,32.00 288,32.00 289,32.00 290,32.00 291,32.00 292,32.00 293,32.00 294,32.00 295,32.00 296,32.00 297,32.00 298,32.00 299,32.00 300,32.00 301,32.00 302,32.00 303,32.00 304,32.00 305,32.00 306,32.00 307,32.00 308,32.00 309,32.00 310,32.00 311,32.00 312,32.00 313,32.00 314,32.00 315,32.00 316,32.00 317,32.00 318,32.00 319,32.00 320,32.00 321,32.00 322,32.00 323,32.00 324,32.00 325,32.00 326,32.00 327,32.00 328,32.00 329,32.00 330,32.00 331,32.00 332,32.00 333,32.00 334,32.00 335,32.00 336,32.00 337,32.00 338,32.00 339,32.00 340,32.00 341,32.00 342,32.00 343,32.00 344,32.00 345,32.00 346,32.00 347,32.00 348,32.00 349,32.00 350,32.00 351,32.00 352,32.00 353,32.00 354,32.00 355,32.00 356,32.00 357,32.00 358,32.00 359,32.00 360,32.00 361,32.00 362,32.00 363,32.00 364,32.00 365,32.00 366,32.00 367,32.00 368,32.00 369,32.00 370,32.00 371,32.00 372,32.00 373,32.00 374,32.00 375,32.00 376,32.00 377,32.00 378,32.00 379,32.00 380,32.00 381,32.00 382,32.00 383,32.00 384,32.00 385,32.03 386,32.12 387,32.26 388,32.46 389,32.72 390,33.04 391,33.41 392,33.84 393,34.33 394,34.88 395,35.48 396,36.13 397,36.85 398,37.61 399,38.43 400,39.31 401,40.24 402,41.22 403,42.25 404,43.34 405,44.47 406,45.66 407,46.89 408,48.18 409,49.51 410,50.89 411,52.32 412,53.79 413,55.31 414,56.87 415,58.47 416,60.12 417,61.80 418,63.53 419,65.30 420,67.10 421,68.94 422,70.81 423,72.72 424,74.67 425,76.64 426,78.65 427,80.68 428,82.75 429,84.84 430,86.95 431,89.10 432,91.26 433,93.45 434,95.66 435,97.89 436,100.13 437,102.40 438,104.67 439,106.97 440,109.27 441,111.59 442,113.91 443,116.25 444,118.59 445,120.94 446,123.29 447,125.64 448,128.00 449,130.36 450,132.71 451,135.06 452,137.41 453,139.75 454,142.09 455,144.41 456,146.73 457,149.03 458,151.33 459,153.60 460,155.87 461,158.11 462,160.34 463,162.55 464,164.74 465,166.90 466,169.05 467,171.16 468,173.25 469,175.32 470,177.35 471,179.36 472,181.33 473,183.28 474,185.19 475,187.06 476,188.90 477,190.70 478,192.47 479,194.20 480,195.88 481,197.53 482,199.13 483,200.69 484,202.21 485,203.68 486,205.11 487,206.49 488,207.82 489,209.11 490,210.34 491,211.53 492,212.66 493,213.75 494,214.78 495,215.76 496,216.69 497,217.57 498,218.39 499,219.15 500,219.87 501,220.52 502,221.12 503,221.67 504,222.16 505,222.59 506,222.96 507,223.28 508,223.54 509,223.74 510,223.88 511,223.97 512,224.00" stroke="#BF616A" stroke-width="5" fill="none"/>

</svg>
