<?xml version="1.0" encoding="utf-8"?>
<!-- Generator: Adobe Illustrator 24.0.2, SVG Export Plug-In . SVG Version: 6.00 Build 0)  -->
<svg version="1.1" id="Layer_1" xmlns="http://www.w3.org/2000/svg" xmlns:xlink="http://www.w3.org/1999/xlink" x="0px" y="0px"
	 viewBox="0 0 439.1508 400.2518" enable-background="new 0 0 439.1508 400.2518" xml:space="preserve">
<g>
	<path d="M317.215,347.6328l-13.667-43.666c-1.0459-3.3408-3.4443-6.0898-6.6113-7.5791l-27.2051-12.7892l4.4337-16.7799
		l-24.2253,7.4004c2.0742,4.6294,1.5288,10.082-1.5143,14.2129c-1.1995,1.6283-2.7078,2.9578-4.4849,3.9531
		c-6.8176,3.8138-15.4692,1.3716-19.2859-5.4415l-3.6582-6.5219l7.4055-4.1472l3.6512,6.5189
		c1.5348,2.7294,5.0109,3.7108,7.7382,2.1927c0.7131-0.4014,1.3173-0.9351,1.7969-1.5862c1.3223-1.7949,1.4749-4.2141,0.3895-6.1598
		l-0.5181-0.925c-4.5255-0.0316-8.4475-2.9508-9.7733-7.2891c-0.8862-2.9017-0.4133-5.8936,1.038-8.3097l-8.7614-15.645
		l-8.4158,31.8508c-1.623,3.6306-1.4946,7.9712,0.7339,11.6228l26.3936,43.251l-32.6943,29.0615
		c-5.1592,4.5869-5.624,12.4873-1.0381,17.6475c2.4697,2.7783,5.9004,4.1953,9.3477,4.1953c2.9531,0,5.9189-1.041,8.2998-3.1572
		l40.5-36c4.5186-4.0176,5.5146-10.6924,2.3652-15.8545l-14.2002-23.27l26.0742,12.2573l12.0264,38.4238
		c1.6738,5.3457,6.6055,8.7705,11.9258,8.7695c1.2373,0,2.4951-0.1846,3.7373-0.5732
		C315.6075,361.2334,319.2765,354.2207,317.215,347.6328z"/>
	<path d="M186.8253,214.1689c-1.5488,2.5293-1.5713,5.708-0.0586,8.2588c1.4463,2.4375,4.0654,3.9189,6.8799,3.9189
		c0.1318,0,0.2637-0.0029,0.3965-0.0098l18.9043-0.9366l-15.7625-28.1469L186.8253,214.1689z"/>
	<path d="M229.376,224.5862l-2.2952,8.6865l12.62,22.5349l34.3296-10.4872l-3.2532-8.3326l2.2307-0.6104l4.0674,10.4176
		l-37.875,11.5703c-4.2256,1.2905-6.6045,5.7627-5.3145,9.9883c1.0537,3.4468,4.2227,5.665,7.6484,5.6646
		c0.7744,0,1.5615-0.1133,2.3398-0.3511l46.1289-14.0918c2.1299-0.6504,3.8926-2.1597,4.8633-4.1636
		c0.9707-2.0044,1.0615-4.3223,0.252-6.397l-6.5918-16.8836l-3.3936-8.6916c-0.8188-2.098-2.428-3.6506-4.3518-4.4602
		c-0.5503-0.3055-1.1414-0.556-1.7778-0.7241l-13.6169-3.598c-5.2728,4.357-12.2809,6.5067-19.4971,5.4067
		c-0.9202-0.1402-1.8447-0.335-2.749-0.5786c-6.3147-1.7029-11.3984-5.7142-14.5999-10.8776l-14.8601,0.7361l8.7292,15.5875
		L229.376,224.5862z"/>
	<path d="M227.6075,178.2129c2.3076-3.7676,1.124-8.6924-2.6445-11c-3.7676-2.3086-8.6934-1.124-11,2.6445l-11.6985,19.1017
		l8.9614,16.002L227.6075,178.2129z"/>
	<path d="M243.7396,217.2649c11.999,3.2359,24.3468-3.8672,27.5825-15.8654c3.2356-11.9981-3.8665-24.3465-15.8655-27.5824
		c-11.9971-3.2355-24.3467,3.8672-27.5823,15.8653C224.6387,201.6805,231.7424,214.0295,243.7396,217.2649z M241.9725,196.7614
		c2.9618-1.308,6.901,1.1147,8.7986,5.4113c1.8975,4.2966,1.0347,8.84-1.927,10.148c-2.9617,1.308-6.9009-1.1147-8.7985-5.4113
		C238.1482,202.6128,239.0109,198.0694,241.9725,196.7614z"/>
	<path d="M301.9171,177.0869c-0.123-0.6289-0.6338-1.1104-1.2695-1.1973l-12.6279-1.7207l7.623-12.0957
		c0.3369-0.5332,0.3037-1.2207-0.083-1.7197c-0.3877-0.4971-1.0488-0.7012-1.6445-0.5078l-12.7285,4.0938l0.6553-14.9199
		c0.0283-0.6475-0.3633-1.2412-0.9707-1.4697c-0.6084-0.2285-1.293-0.041-1.6982,0.4658l-9.5176,11.8682l-5.2178-10.1553
		c-0.2852-0.5557-0.8896-0.877-1.5059-0.8047c-0.6211,0.0713-1.1318,0.5205-1.2832,1.127l-2.3574,9.4336l-9.7627-8.6387
		c-0.4893-0.4326-1.2002-0.498-1.7598-0.167c-0.5605,0.333-0.8418,0.9893-0.6963,1.624l3.1025,13.5791
		c0.1836,0.8076,0.9873,1.3193,1.7959,1.1279c0.8076-0.1846,1.3125-0.9883,1.1279-1.7959l-2.0625-9.0283l8.1172,7.1826
		c0.3926,0.3477,0.9404,0.4648,1.4385,0.3096c0.501-0.1553,0.8838-0.5605,1.0107-1.0693l1.9893-7.9609l4.4521,8.665
		c0.2324,0.4521,0.6777,0.7559,1.1836,0.8066c0.5039,0.0498,1.0029-0.1572,1.3203-0.5537l8.0957-10.0947l-0.5488,12.4912
		c-0.0215,0.4902,0.1992,0.96,0.5889,1.2578c0.3906,0.2988,0.9023,0.3877,1.3691,0.2354l10.8516-3.4902l-6.665,10.5762
		c-0.2725,0.4316-0.3066,0.9717-0.0908,1.4336c0.2158,0.4629,0.6514,0.7832,1.1572,0.8525l10.5879,1.4424l-12.0078,6.9248
		c-0.4004,0.2314-0.6719,0.6338-0.7363,1.0918c-0.0645,0.457,0.0859,0.9189,0.4072,1.251l5.499,5.6836l-7.7559-0.2178
		c-0.8018-0.0586-1.5186,0.6289-1.541,1.457c-0.0234,0.8281,0.6289,1.5186,1.457,1.541l11.4355,0.3213
		c0.0137,0.001,0.0283,0.001,0.042,0.001c0.5938,0,1.1328-0.3506,1.373-0.8955c0.2451-0.5576,0.1289-1.209-0.2949-1.6475
		l-6.7217-6.9473l14.1445-8.1572C301.7501,178.3545,302.0411,177.7168,301.9171,177.0869z"/>
	<path d="M238.1686,151.4821c25.2726-14.1528,13.8799-10.0839,30.2324-19.2415c16.3591-9.1612,34.6895-18.2711,34.6895-18.2711
		s-69.7334-48.0673-148.9661-4.9417l-2.5436-4.5419l-3.3896,1.8983l2.5433,4.5417
		c-78.1774,45.0207-73.6223,129.5932-73.6223,129.5932s17.343-10.8674,33.7021-20.0287
		c16.3503-9.1563,6.9238-1.5663,32.1985-15.7203c25.2791-14.1565,24.2938-15.9158,46.5916-28.4027
		C211.9088,163.8768,212.8939,165.6361,238.1686,151.4821z"/>
	<path d="M237.4808,256.5514l-43.4595-77.605l-3.3896,1.8983l43.6221,77.8954
		C235.1603,257.8295,236.2467,257.0792,237.4808,256.5514z"/>
	<path d="M240.9208,286.99c-3.8523,2.1436-8.7098,0.7764-10.8719-3.0691l-2.5292-4.5164l-3.3909,1.8989l2.5325,4.5144
		c3.2048,5.7229,10.436,7.7595,16.1565,4.5596c5.4987-3.0792,7.5803-9.8723,4.894-15.4778l-3.1658,0.9672
		c-0.2019,0.0616-0.406,0.1129-0.6104,0.162l0.0491,0.0879C246.1338,279.9695,244.7648,284.8236,240.9208,286.99z"/>
	<polygon points="100.5668,363.6484 98.349,362.5715 95.9393,362.1086 93.4196,362.3113 91.4513,363.7878 90.0409,365.7839 
		89.4496,368.2759 90.2606,370.6747 91.5797,372.6355 93.5428,373.949 95.9393,374.6948 98.4891,374.3113 100.5782,372.9146 
		101.7419,370.7271 102.1029,368.2759 101.8483,365.7795 	"/>
	<polygon points="111.61,381.3074 110.3846,380.7124 109.0533,380.4568 107.6613,380.5687 106.5739,381.3845 105.7946,382.4873 
		105.4679,383.864 105.9159,385.1893 106.6448,386.2726 107.7294,386.9983 109.0533,387.4104 110.462,387.1985 111.6163,386.4269 
		112.2592,385.2183 112.4586,383.864 112.318,382.4849 	"/>
	<polygon points="136.2365,363.6484 134.0187,362.5715 131.609,362.1086 129.0894,362.3113 127.121,363.7878 125.7106,365.7839 
		125.1193,368.2759 125.9303,370.6747 127.2494,372.6355 129.2125,373.949 131.609,374.6948 134.1588,374.3113 136.2479,372.9146 
		137.4117,370.7271 137.7726,368.2759 137.5181,365.7795 	"/>
	<polygon points="437.6146,363.6484 435.3969,362.5715 432.9872,362.1086 430.4674,362.3113 428.4991,363.7878 427.0887,365.7839 
		426.4974,368.2759 427.3085,370.6747 428.6276,372.6355 430.5907,373.949 432.9872,374.6948 435.537,374.3113 437.6261,372.9146 
		438.7899,370.7271 439.1508,368.2759 438.8961,365.7795 	"/>
	<polygon points="153.819,371.5465 152.5938,370.9515 151.2625,370.6958 149.8702,370.8079 148.7828,371.6235 148.0035,372.7263 
		147.6769,374.103 148.125,375.4285 148.8539,376.5117 149.9384,377.2373 151.2625,377.6494 152.6711,377.4376 153.8253,376.666 
		154.4683,375.4574 154.6676,374.103 154.527,372.7239 	"/>
	<polygon points="57.6824,389.2056 55.4647,388.1287 53.0551,387.6658 50.5353,387.8684 48.567,389.345 47.1564,391.3411 
		46.5652,393.833 47.3762,396.2318 48.6953,398.1926 50.6586,399.5061 53.0551,400.2518 55.6047,399.8684 57.6937,398.4717 
		58.8575,396.2842 59.2185,393.833 58.964,391.3367 	"/>
	<polygon points="229.3219,391.8674 228.0967,391.2725 226.7654,391.0166 225.3733,391.1287 224.2858,391.9443 223.5066,393.0471 
		223.1799,394.4238 223.6281,395.7493 224.3568,396.8325 225.4414,397.5581 226.7654,397.9702 228.1742,397.7584 229.3282,396.9868 
		229.9713,395.7782 230.1707,394.4238 230.03,393.0447 	"/>
	<polygon points="193.7043,374.233 191.4867,373.1561 189.077,372.6934 186.5573,372.896 184.589,374.3724 183.1783,376.3687 
		182.5872,378.8605 183.3981,381.2593 184.7173,383.2201 186.6805,384.5336 189.077,385.2793 191.6267,384.896 193.7157,383.4993 
		194.8795,381.3118 195.2405,378.8605 194.986,376.3643 	"/>
	<polygon points="249.3586,382.2893 248.1334,381.6943 246.8021,381.4387 245.41,381.5507 244.3226,382.3665 243.5433,383.4692 
		243.2167,384.8459 243.6647,386.1713 244.3934,387.2546 245.4781,387.9802 246.8021,388.3923 248.2108,388.1804 249.365,387.4088 
		250.0079,386.2002 250.2074,384.8459 250.0668,383.4668 	"/>
	<polygon points="281.4535,376.1417 280.2281,375.5468 278.8969,375.291 277.5048,375.4031 276.4174,376.2188 275.6381,377.3215 
		275.3114,378.6982 275.7594,380.0237 276.4883,381.1069 277.5729,381.8325 278.8969,382.2446 280.3055,382.0328 281.4598,381.2612 
		282.1027,380.0526 282.3021,378.6982 282.1615,377.3191 	"/>
	<polygon points="402.6813,376.1417 401.4559,375.5468 400.1246,375.291 398.7325,375.4031 397.6451,376.2188 396.8658,377.3215 
		396.5392,378.6982 396.9872,380.0237 397.7159,381.1069 398.8007,381.8325 400.1246,382.2446 401.5333,382.0328 402.6875,381.2612 
		403.3304,380.0526 403.5299,378.6982 403.3893,377.3191 	"/>
	<polygon points="323.8632,382.2893 322.6379,381.6943 321.3066,381.4387 319.9146,381.5507 318.827,382.3665 318.0477,383.4692 
		317.7211,384.8459 318.1692,386.1713 318.8981,387.2546 319.9825,387.9802 321.3066,388.3923 322.7153,388.1804 323.8695,387.4088 
		324.5126,386.2002 324.7118,384.8459 324.5713,383.4668 	"/>
	<polygon points="10.6515,370.2281 8.6832,368.7517 6.1635,368.5491 3.7538,369.012 1.536,370.0887 0.2545,372.22 0,374.7162 
		0.3608,377.1675 1.5247,379.355 3.6136,380.7517 6.1635,381.1351 8.5599,380.3893 10.5231,379.0758 11.8423,377.115 
		12.6533,374.7162 12.062,372.2244 	"/>
	<path d="M63.0626,378.9219c-1.9121-3.5459-6.5879-10.7148-13.374-11.25c-5.5391-0.4521-11.1963,3.7119-16.7637,12.3389
		c-1.7617-1.4346-8.4482-6.4473-16.8584-7.3174l-0.1035,0.9941c9.2998,0.9629,16.6719,7.3828,16.7451,7.4473
		c0.1094,0.0967,0.2559,0.1377,0.4014,0.1201c0.1455-0.0205,0.2734-0.1035,0.3525-0.2275
		c5.4521-8.6152,10.8936-12.7754,16.1455-12.3594c8.25,0.6494,13.4443,12.4736,13.4961,12.5928
		c0.0801,0.1855,0.2627,0.3018,0.459,0.3018c0.0332,0,0.0674-0.0029,0.1016-0.0107c0.2314-0.0479,0.3984-0.252,0.3984-0.4893
		V260.1816h-1V378.9219z"/>
	<path d="M96.215,143.7041c0.0967,0.1104,0.2344,0.1699,0.375,0.1699c0.0596,0,0.1191-0.0107,0.1768-0.0322
		c0.1943-0.0732,0.3232-0.2598,0.3232-0.4678V22.4932h-1v119.6143c-3.124-3.2061-13.9209-13.1367-24.0703-8.7705l0.3945,0.918
		C83.5157,129.4824,96.09,143.5615,96.215,143.7041z"/>
	<polygon points="67.7594,133.5016 65.5416,132.4247 63.132,131.9619 60.6122,132.1646 58.6439,133.641 57.2335,135.6372 
		56.6422,138.129 57.4532,140.5279 58.7723,142.4886 60.7355,143.8021 63.132,144.548 65.6818,144.1645 67.7709,142.7678 
		68.9347,140.5803 69.2955,138.129 69.041,135.6328 	"/>
	<path d="M279.0519,17.1748v70.6768c0,0.208,0.1289,0.3945,0.3232,0.4678c0.0576,0.0215,0.1172,0.0322,0.1768,0.0322
		c0.1406,0,0.2783-0.0596,0.375-0.1699c0.126-0.1426,12.6992-14.2207,23.8018-9.4492l0.3945-0.918
		c-10.1494-4.3662-20.9473,5.5645-24.0713,8.7705V17.1748H279.0519z"/>
	<polygon points="310.4606,88.6418 313.0104,89.0253 315.4069,88.2795 317.37,86.966 318.6891,85.0052 319.5001,82.6064 
		318.9088,80.1145 317.4984,78.1183 315.5302,76.6419 313.0104,76.4393 310.6007,76.902 308.3829,77.9789 307.1013,80.1101 
		306.8468,82.6064 307.2076,85.0576 308.3715,87.2452 	"/>
	<rect x="13.6984" y="82.0527" width="1" height="182.9727"/>
	<polygon points="19.5044,280.0396 20.0958,277.5972 19.4709,275.1993 18.0765,273.1512 16.199,271.4867 13.8129,270.7864 
		11.4518,271.4956 9.3651,272.7869 7.6483,274.6421 7.1996,277.0614 7.5134,279.4854 8.7657,281.7195 10.9869,282.9354 
		13.2853,283.485 15.6193,283.1221 17.8878,282.0482 	"/>
	<rect x="364.1202" y="68.8604" width="1" height="92.2803"/>
	<polygon points="368.4987,169.2662 366.621,167.6017 364.2349,166.9014 361.8737,167.6107 359.7872,168.9018 358.0702,170.7571 
		357.6217,173.1764 357.9354,175.6004 359.1877,177.8344 361.4088,179.0504 363.7074,179.6 366.0414,179.2372 368.3098,178.1632 
		369.9264,176.1545 370.5179,173.7122 369.8929,171.3143 	"/>
	<path d="M344.1593,372.3643V252.75h-1v120.8809c0,0.208,0.1289,0.3945,0.3232,0.4678c0.0576,0.0215,0.1172,0.0322,0.1768,0.0322
		c0.1406,0,0.2783-0.0596,0.375-0.1699c0.126-0.1426,12.6953-14.2236,23.8018-9.4492l0.3945-0.918
		C358.0822,359.2236,347.2823,369.1592,344.1593,372.3643z"/>
	<polygon points="381.6056,363.8979 379.6373,362.4214 377.1176,362.2188 374.7079,362.6816 372.4902,363.7585 371.2086,365.8896 
		370.9541,368.386 371.3151,370.8372 372.4789,373.0247 374.5679,374.4214 377.1176,374.8048 379.514,374.0591 381.4773,372.7456 
		382.7964,370.7848 383.6074,368.386 383.0162,365.894 	"/>
	<rect x="188.4689" width="1" height="51.835"/>
	<polygon points="184.1359,59.5964 182.4188,61.4517 181.9703,63.871 182.2841,66.295 183.5363,68.529 185.7574,69.7451 
		188.0559,70.2946 190.39,69.9318 192.6583,68.8578 194.275,66.8491 194.8665,64.4067 194.2416,62.009 192.8473,59.9609 
		190.9696,58.2963 188.5834,57.5959 186.2223,58.3052 	"/>
	<rect x="409.2579" y="112.4385" width="1" height="142.1279"/>
	<polygon points="413.6362,262.6925 411.7587,261.0281 409.3724,260.3276 407.0114,261.0369 404.9248,262.3281 403.2079,264.1833 
		402.7593,266.6027 403.0731,269.0266 404.3253,271.2607 406.5465,272.4768 408.8448,273.0264 411.1788,272.6635 413.4474,271.5895 
		415.0641,269.5808 415.6554,267.1384 415.0306,264.7407 	"/>
	<rect x="149.4962" y="224.9307" width="1" height="92.2803"/>
	<polygon points="149.2921,330.6272 150.8346,330.3875 152.3337,329.6777 153.4021,328.3502 153.793,326.7361 153.38,325.1516 
		152.4585,323.798 151.2177,322.698 149.6407,322.2351 148.0804,322.7039 146.7014,323.5571 145.5668,324.7832 145.2704,326.3821 
		145.4777,327.984 146.3053,329.4604 147.7732,330.264 	"/>
</g>
</svg>
