
<svg version="1.1" width="512" height="256" xmlns="http://www.w3.org/2000/svg">

  <rect width="100%" height="100%" fill="#ECEFF4" rx="30" />
  <line x1="0" x2="512" y1="224" y2="224" stroke="#2E3440" stroke-width="3" />
  <line x1="256" x2="256" y1="0" y2="256" stroke="#2E3440" stroke-width="3" />


  <line x1="0" x2="512" y1="32" y2="32" stroke-dasharray="5,3" stroke="#434C5E" stroke-width="3" />

  <polyline points="0,224.00 1,224.00 2,224.00 3,224.00 4,224.00 5,224.00 6,224.00 7,224.00 8,224.00 9,224.00 10,224.00 11,224.00 12,224.00 13,224.00 14,224.00 15,224.00 16,224.00 17,224.00 18,224.00 19,224.00 20,224.00 21,224.00 22,224.00 23,224.00 24,224.00 25,224.00 26,224.00 27,224.00 28,224.00 29,224.00 30,224.00 31,224.00 32,224.00 33,224.00 34,224.00 35,224.00 36,224.00 37,224.00 38,224.00 39,224.00 40,224.00 41,224.00 42,224.00 43,224.00 44,224.00 45,224.00 46,224.00 47,224.00 48,224.00 49,224.00 50,224.00 51,224.00 52,224.00 53,224.00 54,224.00 55,224.00 56,224.00 57,224.00 58,224.00 59,224.00 60,224.00 61,224.00 62,224.00 63,224.00 64,224.00 65,224.00 66,224.00 67,224.00 68,224.00 69,224.00 70,224.00 71,224.00 72,224.00 73,224.00 74,224.00 75,224.00 76,224.00 77,224.00 78,224.00 79,224.00 80,224.00 81,224.00 82,224.00 83,224.00 84,224.00 85,224.00 86,224.00 87,224.00 88,224.00 89,224.00 90,224.00 91,224.00 92,224.00 93,224.00 94,224.00 95,224.00 96,224.00 97,224.00 98,224.00 99,224.00 100,224.00 101,224.00 102,224.00 103,224.00 104,224.00 105,224.00 106,224.00 107,224.00 108,224.00 109,224.00 110,224.00 111,224.00 112,224.00 113,224.00 114,224.00 115,224.00 116,224.00 117,224.00 118,224.00 119,224.00 120,224.00 121,224.00 122,224.00 123,224.00 124,224.00 125,224.00 126,224.00 127,224.00 128,128.00 129,32.00 130,32.00 131,32.00 132,32.00 133,32.00 134,32.00 135,32.00 136,32.00 137,32.00 138,32.00 139,32.00 140,32.00 141,32.00 142,32.00 143,32.00 144,32.00 145,32.00 146,32.00 147,32.00 148,32.00 149,32.00 150,32.00 151,32.00 152,32.00 153,32.00 154,32.00 155,32.00 156,32.00 157,32.00 158,32.00 159,32.00 160,32.00 161,32.00 162,32.00 163,32.00 164,32.00 165,32.00 166,32.00 167,32.00 168,32.00 169,32.00 170,32.00 171,32.00 172,32.00 173,32.00 174,32.00 175,32.00 176,32.00 177,32.00 178,32.00 179,32.00 180,32.00 181,32.00 182,32.00 183,32.00 184,32.00 185,32.00 186,32.00 187,32.00 188,32.00 189,32.00 190,32.00 191,32.00 192,32.00 193,32.00 194,32.00 195,32.00 196,32.00 197,32.00 198,32.00 199,32.00 200,32.00 201,32.00 202,32.00 203,32.00 204,32.00 205,32.00 206,32.00 207,32.00 208,32.00 209,32.00 210,32.00 211,32.00 212,32.00 213,32.00 214,32.00 215,32.00 216,32.00 217,32.00 218,32.00 219,32.00 220,32.00 221,32.00 222,32.00 223,32.00 224,32.00 225,32.00 226,32.00 227,32.00 228,32.00 229,32.00 230,32.00 231,32.00 232,32.00 233,32.00 234,32.00 235,32.00 236,32.00 237,32.00 238,32.00 239,32.00 240,32.00 241,32.00 242,32.00 243,32.00 244,32.00 245,32.00 246,32.00 247,32.00 248,32.00 249,32.00 250,32.00 251,32.00 252,32.00 253,32.00 254,32.00 255,32.00 256,32.00 257,32.00 258,32.00 259,32.00 260,32.00 261,32.00 262,32.00 263,32.00 264,32.00 265,32.00 266,32.00 267,32.00 268,32.00 269,32.00 270,32.00 271,32.00 272,32.00 273,32.00 274,32.00 275,32.00 276,32.00 277,32.00 278,32.00 279,32.00 280,32.00 281,32.00 282,32.00 283,32.00 284,32.00 285,32.00 286,32.00 287,32.00 288,32.00 289,32.00 290,32.00 291,32.00 292,32.00 293,32.00 294,32.00 295,32.00 296,32.00 297,32.00 298,32.00 299,32.00 300,32.00 301,32.00 302,32.00 303,32.00 304,32.00 305,32.00 306,32.00 307,32.00 308,32.00 309,32.00 310,32.00 311,32.00 312,32.00 313,32.00 314,32.00 315,32.00 316,32.00 317,32.00 318,32.00 319,32.00 320,32.00 321,32.00 322,32.00 323,32.00 324,32.00 325,32.00 326,32.00 327,32.00 328,32.00 329,32.00 330,32.00 331,32.00 332,32.00 333,32.00 334,32.00 335,32.00 336,32.00 337,32.00 338,32.00 339,32.00 340,32.00 341,32.00 342,32.00 343,32.00 344,32.00 345,32.00 346,32.00 347,32.00 348,32.00 349,32.00 350,32.00 351,32.00 352,32.00 353,32.00 354,32.00 355,32.00 356,32.00 357,32.00 358,32.00 359,32.00 360,32.00 361,32.00 362,32.00 363,32.00 364,32.00 365,32.00 366,32.00 367,32.00 368,32.00 369,32.00 370,32.00 371,32.00 372,32.00 373,32.00 374,32.00 375,32.00 376,32.00 377,32.00 378,32.00 379,32.00 380,32.00 381,32.00 382,32.00 383,32.00 384,128.00 385,224.00 386,224.00 387,224.00 388,224.00 389,224.00 390,224.00 391,224.00 392,224.00 393,224.00 394,224.00 395,224.00 396,224.00 397,224.00 398,224.00 399,224.00 400,224.00 401,224.00 402,224.00 403,224.00 404,224.00 405,224.00 406,224.00 407,224.00 408,224.00 409,224.00 410,224.00 411,224.00 412,224.00 413,224.00 414,224.00 415,224.00 416,224.00 417,224.00 418,224.00 419,224.00 420,224.00 421,224.00 422,224.00 423,224.00 424,224.00 425,224.00 426,224.00 427,224.00 428,224.00 429,224.00 430,224.00 431,224.00 432,224.00 433,224.00 434,224.00 435,224.00 436,224.00 437,224.00 438,224.00 439,224.00 440,224.00 441,224.00 442,224.00 443,224.00 444,224.00 445,224.00 446,224.00 447,224.00 448,224.00 449,224.00 450,224.00 451,224.00 452,224.00 453,224.00 454,224.00 455,224.00 456,224.00 457,224.00 458,224.00 459,224.00 460,224.00 461,224.00 462,224.00 463,224.00 464,224.00 465,224.00 466,224.00 467,224.00 468,224.00 469,224.00 470,224.00 471,224.00 472,224.00 473,224.00 474,224.00 475,224.00 476,224.00 477,224.00 478,224.00 479,224.00 480,224.00 481,224.00 482,224.00 483,224.00 484,224.00 485,224.00 486,224.00 487,224.00 488,224.00 489,224.00 490,224.00 491,224.00 492,224.00 493,224.00 494,224.00 495,224.00 496,224.00 497,224.00 498,224.00 499,224.00 500,224.00 501,224.00 502,224.00 503,224.00 504,224.00 505,224.00 506,224.00 507,224.00 508,224.00 509,224.00 510,224.00 511,224.00 512,224.00" stroke="#BF616A" stroke-width="5" fill="none"/>

</svg>
