
<svg version="1.1" width="512" height="256" xmlns="http://www.w3.org/2000/svg">

  <rect width="100%" height="100%" fill="#ECEFF4" rx="30" />
  <line x1="0" x2="512" y1="224" y2="224" stroke="#2E3440" stroke-width="3" />
  <line x1="256" x2="256" y1="0" y2="256" stroke="#2E3440" stroke-width="3" />


  <line x1="0" x2="512" y1="32" y2="32" stroke-dasharray="5,3" stroke="#434C5E" stroke-width="3" />

  <polyline points="0,224.00 1,224.00 2,224.00 3,224.00 4,224.00 5,224.00 6,224.00 7,224.00 8,224.00 9,224.00 10,224.00 11,224.00 12,224.00 13,224.00 14,224.00 15,224.00 16,224.00 17,224.00 18,224.00 19,224.00 20,224.00 21,224.00 22,224.00 23,224.00 24,224.00 25,224.00 26,224.00 27,224.00 28,224.00 29,224.00 30,224.00 31,224.00 32,224.00 33,224.00 34,224.00 35,224.00 36,224.00 37,224.00 38,224.00 39,224.00 40,224.00 41,224.00 42,224.00 43,224.00 44,224.00 45,224.00 46,224.00 47,224.00 48,224.00 49,224.00 50,224.00 51,224.00 52,224.00 53,224.00 54,224.00 55,224.00 56,224.00 57,224.00 58,224.00 59,224.00 60,224.00 61,224.00 62,224.00 63,224.00 64,224.00 65,224.00 66,224.00 67,224.00 68,224.00 69,224.00 70,224.00 71,224.00 72,224.00 73,224.00 74,224.00 75,224.00 76,224.00 77,224.00 78,224.00 79,224.00 80,224.00 81,224.00 82,224.00 83,224.00 84,224.00 85,224.00 86,224.00 87,224.00 88,224.00 89,224.00 90,224.00 91,224.00 92,224.00 93,224.00 94,224.00 95,224.00 96,224.00 97,224.00 98,224.00 99,224.00 100,224.00 101,224.00 102,224.00 103,224.00 104,224.00 105,224.00 106,224.00 107,224.00 108,224.00 109,224.00 110,224.00 111,224.00 112,224.00 113,224.00 114,224.00 115,224.00 116,224.00 117,224.00 118,224.00 119,224.00 120,224.00 121,224.00 122,224.00 123,224.00 124,224.00 125,224.00 126,224.00 127,224.00 128,224.00 129,224.00 130,224.00 131,224.00 132,224.00 133,224.00 134,224.00 135,224.00 136,224.00 137,224.00 138,224.00 139,224.00 140,224.00 141,224.00 142,224.00 143,224.00 144,224.00 145,224.00 146,224.00 147,224.00 148,224.00 149,224.00 150,224.00 151,224.00 152,224.00 153,224.00 154,224.00 155,224.00 156,224.00 157,224.00 158,224.00 159,224.00 160,224.00 161,224.00 162,224.00 163,224.00 164,224.00 165,224.00 166,224.00 167,224.00 168,224.00 169,224.00 170,224.00 171,224.00 172,224.00 173,224.00 174,224.00 175,224.00 176,224.00 177,224.00 178,224.00 179,224.00 180,224.00 181,224.00 182,224.00 183,224.00 184,224.00 185,224.00 186,224.00 187,224.00 188,224.00 189,224.00 190,224.00 191,224.00 192,224.00 193,224.00 194,224.00 195,224.00 196,224.00 197,224.00 198,224.00 199,224.00 200,224.00 201,224.00 202,224.00 203,224.00 204,224.00 205,224.00 206,224.00 207,224.00 208,224.00 209,224.00 210,224.00 211,224.00 212,224.00 213,224.00 214,224.00 215,224.00 216,224.00 217,224.00 218,224.00 219,224.00 220,224.00 221,224.00 222,224.00 223,224.00 224,224.00 225,224.00 226,224.00 227,224.00 228,224.00 229,224.00 230,224.00 231,224.00 232,224.00 233,224.00 234,224.00 235,224.00 236,224.00 237,224.00 238,224.00 239,224.00 240,224.00 241,224.00 242,224.00 243,224.00 244,224.00 245,224.00 246,224.00 247,224.00 248,224.00 249,224.00 250,224.00 251,224.00 252,224.00 253,224.00 254,224.00 255,224.00 256,128.00 257,32.00 258,32.00 259,32.00 260,32.00 261,32.00 262,32.00 263,32.00 264,32.00 265,32.00 266,32.00 267,32.00 268,32.00 269,32.00 270,32.00 271,32.00 272,32.00 273,32.00 274,32.00 275,32.00 276,32.00 277,32.00 278,32.00 279,32.00 280,32.00 281,32.00 282,32.00 283,32.00 284,32.00 285,32.00 286,32.00 287,32.00 288,32.00 289,32.00 290,32.00 291,32.00 292,32.00 293,32.00 294,32.00 295,32.00 296,32.00 297,32.00 298,32.00 299,32.00 300,32.00 301,32.00 302,32.00 303,32.00 304,32.00 305,32.00 306,32.00 307,32.00 308,32.00 309,32.00 310,32.00 311,32.00 312,32.00 313,32.00 314,32.00 315,32.00 316,32.00 317,32.00 318,32.00 319,32.00 320,32.00 321,32.00 322,32.00 323,32.00 324,32.00 325,32.00 326,32.00 327,32.00 328,32.00 329,32.00 330,32.00 331,32.00 332,32.00 333,32.00 334,32.00 335,32.00 336,32.00 337,32.00 338,32.00 339,32.00 340,32.00 341,32.00 342,32.00 343,32.00 344,32.00 345,32.00 346,32.00 347,32.00 348,32.00 349,32.00 350,32.00 351,32.00 352,32.00 353,32.00 354,32.00 355,32.00 356,32.00 357,32.00 358,32.00 359,32.00 360,32.00 361,32.00 362,32.00 363,32.00 364,32.00 365,32.00 366,32.00 367,32.00 368,32.00 369,32.00 370,32.00 371,32.00 372,32.00 373,32.00 374,32.00 375,32.00 376,32.00 377,32.00 378,32.00 379,32.00 380,32.00 381,32.00 382,32.00 383,32.00 384,32.00 385,32.00 386,32.00 387,32.00 388,32.00 389,32.00 390,32.00 391,32.00 392,32.00 393,32.00 394,32.00 395,32.00 396,32.00 397,32.00 398,32.00 399,32.00 400,32.00 401,32.00 402,32.00 403,32.00 404,32.00 405,32.00 406,32.00 407,32.00 408,32.00 409,32.00 410,32.00 411,32.00 412,32.00 413,32.00 414,32.00 415,32.00 416,32.00 417,32.00 418,32.00 419,32.00 420,32.00 421,32.00 422,32.00 423,32.00 424,32.00 425,32.00 426,32.00 427,32.00 428,32.00 429,32.00 430,32.00 431,32.00 432,32.00 433,32.00 434,32.00 435,32.00 436,32.00 437,32.00 438,32.00 439,32.00 440,32.00 441,32.00 442,32.00 443,32.00 444,32.00 445,32.00 446,32.00 447,32.00 448,32.00 449,32.00 450,32.00 451,32.00 452,32.00 453,32.00 454,32.00 455,32.00 456,32.00 457,32.00 458,32.00 459,32.00 460,32.00 461,32.00 462,32.00 463,32.00 464,32.00 465,32.00 466,32.00 467,32.00 468,32.00 469,32.00 470,32.00 471,32.00 472,32.00 473,32.00 474,32.00 475,32.00 476,32.00 477,32.00 478,32.00 479,32.00 480,32.00 481,32.00 482,32.00 483,32.00 484,32.00 485,32.00 486,32.00 487,32.00 488,32.00 489,32.00 490,32.00 491,32.00 492,32.00 493,32.00 494,32.00 495,32.00 496,32.00 497,32.00 498,32.00 499,32.00 500,32.00 501,32.00 502,32.00 503,32.00 504,32.00 505,32.00 506,32.00 507,32.00 508,32.00 509,32.00 510,32.00 511,32.00 512,32.00" stroke="#BF616A" stroke-width="5" fill="none"/>

</svg>
