
<svg version="1.1" width="512" height="256" xmlns="http://www.w3.org/2000/svg">

  <rect width="100%" height="100%" fill="#ECEFF4" rx="30" />
  <line x1="0" x2="512" y1="224" y2="224" stroke="#2E3440" stroke-width="3" />
  <line x1="256" x2="256" y1="0" y2="256" stroke="#2E3440" stroke-width="3" />


  <line x1="0" x2="512" y1="32" y2="32" stroke-dasharray="5,3" stroke="#434C5E" stroke-width="3" />

  <polyline points="0,224.00 1,222.50 2,221.00 3,219.50 4,218.00 5,216.50 6,215.00 7,213.50 8,212.00 9,210.50 10,209.00 11,207.50 12,206.00 13,204.50 14,203.00 15,201.50 16,200.00 17,198.50 18,197.00 19,195.50 20,194.00 21,192.50 22,191.00 23,189.50 24,188.00 25,186.50 26,185.00 27,183.50 28,182.00 29,180.50 30,179.00 31,177.50 32,176.00 33,174.50 34,173.00 35,171.50 36,170.00 37,168.50 38,167.00 39,165.50 40,164.00 41,162.50 42,161.00 43,159.50 44,158.00 45,156.50 46,155.00 47,153.50 48,152.00 49,150.50 50,149.00 51,147.50 52,146.00 53,144.50 54,143.00 55,141.50 56,140.00 57,138.50 58,137.00 59,135.50 60,134.00 61,132.50 62,131.00 63,129.50 64,128.00 65,126.50 66,125.00 67,123.50 68,122.00 69,120.50 70,119.00 71,117.50 72,116.00 73,114.50 74,113.00 75,111.50 76,110.00 77,108.50 78,107.00 79,105.50 80,104.00 81,102.50 82,101.00 83,99.50 84,98.00 85,96.50 86,95.00 87,93.50 88,92.00 89,90.50 90,89.00 91,87.50 92,86.00 93,84.50 94,83.00 95,81.50 96,80.00 97,78.50 98,77.00 99,75.50 100,74.00 101,72.50 102,71.00 103,69.50 104,68.00 105,66.50 106,65.00 107,63.50 108,62.00 109,60.50 110,59.00 111,57.50 112,56.00 113,54.50 114,53.00 115,51.50 116,50.00 117,48.50 118,47.00 119,45.50 120,44.00 121,42.50 122,41.00 123,39.50 124,38.00 125,36.50 126,35.00 127,33.50 128,32.00 129,32.00 130,32.00 131,32.00 132,32.00 133,32.00 134,32.00 135,32.00 136,32.00 137,32.00 138,32.00 139,32.00 140,32.00 141,32.00 142,32.00 143,32.00 144,32.00 145,32.00 146,32.00 147,32.00 148,32.00 149,32.00 150,32.00 151,32.00 152,32.00 153,32.00 154,32.00 155,32.00 156,32.00 157,32.00 158,32.00 159,32.00 160,32.00 161,32.00 162,32.00 163,32.00 164,32.00 165,32.00 166,32.00 167,32.00 168,32.00 169,32.00 170,32.00 171,32.00 172,32.00 173,32.00 174,32.00 175,32.00 176,32.00 177,32.00 178,32.00 179,32.00 180,32.00 181,32.00 182,32.00 183,32.00 184,32.00 185,32.00 186,32.00 187,32.00 188,32.00 189,32.00 190,32.00 191,32.00 192,32.00 193,32.00 194,32.00 195,32.00 196,32.00 197,32.00 198,32.00 199,32.00 200,32.00 201,32.00 202,32.00 203,32.00 204,32.00 205,32.00 206,32.00 207,32.00 208,32.00 209,32.00 210,32.00 211,32.00 212,32.00 213,32.00 214,32.00 215,32.00 216,32.00 217,32.00 218,32.00 219,32.00 220,32.00 221,32.00 222,32.00 223,32.00 224,32.00 225,32.00 226,32.00 227,32.00 228,32.00 229,32.00 230,32.00 231,32.00 232,32.00 233,32.00 234,32.00 235,32.00 236,32.00 237,32.00 238,32.00 239,32.00 240,32.00 241,32.00 242,32.00 243,32.00 244,32.00 245,32.00 246,32.00 247,32.00 248,32.00 249,32.00 250,32.00 251,32.00 252,32.00 253,32.00 254,32.00 255,32.00 256,32.00 257,32.00 258,32.00 259,32.00 260,32.00 261,32.00 262,32.00 263,32.00 264,32.00 265,32.00 266,32.00 267,32.00 268,32.00 269,32.00 270,32.00 271,32.00 272,32.00 273,32.00 274,32.00 275,32.00 276,32.00 277,32.00 278,32.00 279,32.00 280,32.00 281,32.00 282,32.00 283,32.00 284,32.00 285,32.00 286,32.00 287,32.00 288,32.00 289,32.00 290,32.00 291,32.00 292,32.00 293,32.00 294,32.00 295,32.00 296,32.00 297,32.00 298,32.00 299,32.00 300,32.00 301,32.00 302,32.00 303,32.00 304,32.00 305,32.00 306,32.00 307,32.00 308,32.00 309,32.00 310,32.00 311,32.00 312,32.00 313,32.00 314,32.00 315,32.00 316,32.00 317,32.00 318,32.00 319,32.00 320,32.00 321,32.00 322,32.00 323,32.00 324,32.00 325,32.00 326,32.00 327,32.00 328,32.00 329,32.00 330,32.00 331,32.00 332,32.00 333,32.00 334,32.00 335,32.00 336,32.00 337,32.00 338,32.00 339,32.00 340,32.00 341,32.00 342,32.00 343,32.00 344,32.00 345,32.00 346,32.00 347,32.00 348,32.00 349,32.00 350,32.00 351,32.00 352,32.00 353,32.00 354,32.00 355,32.00 356,32.00 357,32.00 358,32.00 359,32.00 360,32.00 361,32.00 362,32.00 363,32.00 364,32.00 365,32.00 366,32.00 367,32.00 368,32.00 369,32.00 370,32.00 371,32.00 372,32.00 373,32.00 374,32.00 375,32.00 376,32.00 377,32.00 378,32.00 379,32.00 380,32.00 381,32.00 382,32.00 383,32.00 384,32.00 385,33.50 386,35.00 387,36.50 388,38.00 389,39.50 390,41.00 391,42.50 392,44.00 393,45.50 394,47.00 395,48.50 396,50.00 397,51.50 398,53.00 399,54.50 400,56.00 401,57.50 402,59.00 403,60.50 404,62.00 405,63.50 406,65.00 407,66.50 408,68.00 409,69.50 410,71.00 411,72.50 412,74.00 413,75.50 414,77.00 415,78.50 416,80.00 417,81.50 418,83.00 419,84.50 420,86.00 421,87.50 422,89.00 423,90.50 424,92.00 425,93.50 426,95.00 427,96.50 428,98.00 429,99.50 430,101.00 431,102.50 432,104.00 433,105.50 434,107.00 435,108.50 436,110.00 437,111.50 438,113.00 439,114.50 440,116.00 441,117.50 442,119.00 443,120.50 444,122.00 445,123.50 446,125.00 447,126.50 448,128.00 449,129.50 450,131.00 451,132.50 452,134.00 453,135.50 454,137.00 455,138.50 456,140.00 457,141.50 458,143.00 459,144.50 460,146.00 461,147.50 462,149.00 463,150.50 464,152.00 465,153.50 466,155.00 467,156.50 468,158.00 469,159.50 470,161.00 471,162.50 472,164.00 473,165.50 474,167.00 475,168.50 476,170.00 477,171.50 478,173.00 479,174.50 480,176.00 481,177.50 482,179.00 483,180.50 484,182.00 485,183.50 486,185.00 487,186.50 488,188.00 489,189.50 490,191.00 491,192.50 492,194.00 493,195.50 494,197.00 495,198.50 496,200.00 497,201.50 498,203.00 499,204.50 500,206.00 501,207.50 502,209.00 503,210.50 504,212.00 505,213.50 506,215.00 507,216.50 508,218.00 509,219.50 510,221.00 511,222.50 512,224.00" stroke="#BF616A" stroke-width="5" fill="none"/>

</svg>
