
<svg version="1.1" width="512" height="256" xmlns="http://www.w3.org/2000/svg">

  <rect width="100%" height="100%" fill="#ECEFF4" rx="30" />
  <line x1="0" x2="512" y1="224" y2="224" stroke="#2E3440" stroke-width="3" />
  <line x1="256" x2="256" y1="0" y2="256" stroke="#2E3440" stroke-width="3" />


  <line x1="0" x2="512" y1="32" y2="32" stroke-dasharray="5,3" stroke="#434C5E" stroke-width="3" />

  <polyline points="0,224.00 1,223.25 2,222.50 3,221.75 4,221.00 5,220.25 6,219.50 7,218.75 8,218.00 9,217.25 10,216.50 11,215.75 12,215.00 13,214.25 14,213.50 15,212.75 16,212.00 17,211.25 18,210.50 19,209.75 20,209.00 21,208.25 22,207.50 23,206.75 24,206.00 25,205.25 26,204.50 27,203.75 28,203.00 29,202.25 30,201.50 31,200.75 32,200.00 33,199.25 34,198.50 35,197.75 36,197.00 37,196.25 38,195.50 39,194.75 40,194.00 41,193.25 42,192.50 43,191.75 44,191.00 45,190.25 46,189.50 47,188.75 48,188.00 49,187.25 50,186.50 51,185.75 52,185.00 53,184.25 54,183.50 55,182.75 56,182.00 57,181.25 58,180.50 59,179.75 60,179.00 61,178.25 62,177.50 63,176.75 64,176.00 65,175.25 66,174.50 67,173.75 68,173.00 69,172.25 70,171.50 71,170.75 72,170.00 73,169.25 74,168.50 75,167.75 76,167.00 77,166.25 78,165.50 79,164.75 80,164.00 81,163.25 82,162.50 83,161.75 84,161.00 85,160.25 86,159.50 87,158.75 88,158.00 89,157.25 90,156.50 91,155.75 92,155.00 93,154.25 94,153.50 95,152.75 96,152.00 97,151.25 98,150.50 99,149.75 100,149.00 101,148.25 102,147.50 103,146.75 104,146.00 105,145.25 106,144.50 107,143.75 108,143.00 109,142.25 110,141.50 111,140.75 112,140.00 113,139.25 114,138.50 115,137.75 116,137.00 117,136.25 118,135.50 119,134.75 120,134.00 121,133.25 122,132.50 123,131.75 124,131.00 125,130.25 126,129.50 127,128.75 128,128.00 129,127.25 130,126.50 131,125.75 132,125.00 133,124.25 134,123.50 135,122.75 136,122.00 137,121.25 138,120.50 139,119.75 140,119.00 141,118.25 142,117.50 143,116.75 144,116.00 145,115.25 146,114.50 147,113.75 148,113.00 149,112.25 150,111.50 151,110.75 152,110.00 153,109.25 154,108.50 155,107.75 156,107.00 157,106.25 158,105.50 159,104.75 160,104.00 161,103.25 162,102.50 163,101.75 164,101.00 165,100.25 166,99.50 167,98.75 168,98.00 169,97.25 170,96.50 171,95.75 172,95.00 173,94.25 174,93.50 175,92.75 176,92.00 177,91.25 178,90.50 179,89.75 180,89.00 181,88.25 182,87.50 183,86.75 184,86.00 185,85.25 186,84.50 187,83.75 188,83.00 189,82.25 190,81.50 191,80.75 192,80.00 193,79.25 194,78.50 195,77.75 196,77.00 197,76.25 198,75.50 199,74.75 200,74.00 201,73.25 202,72.50 203,71.75 204,71.00 205,70.25 206,69.50 207,68.75 208,68.00 209,67.25 210,66.50 211,65.75 212,65.00 213,64.25 214,63.50 215,62.75 216,62.00 217,61.25 218,60.50 219,59.75 220,59.00 221,58.25 222,57.50 223,56.75 224,56.00 225,55.25 226,54.50 227,53.75 228,53.00 229,52.25 230,51.50 231,50.75 232,50.00 233,49.25 234,48.50 235,47.75 236,47.00 237,46.25 238,45.50 239,44.75 240,44.00 241,43.25 242,42.50 243,41.75 244,41.00 245,40.25 246,39.50 247,38.75 248,38.00 249,37.25 250,36.50 251,35.75 252,35.00 253,34.25 254,33.50 255,32.75 256,32.00 257,32.75 258,33.50 259,34.25 260,35.00 261,35.75 262,36.50 263,37.25 264,38.00 265,38.75 266,39.50 267,40.25 268,41.00 269,41.75 270,42.50 271,43.25 272,44.00 273,44.75 274,45.50 275,46.25 276,47.00 277,47.75 278,48.50 279,49.25 280,50.00 281,50.75 282,51.50 283,52.25 284,53.00 285,53.75 286,54.50 287,55.25 288,56.00 289,56.75 290,57.50 291,58.25 292,59.00 293,59.75 294,60.50 295,61.25 296,62.00 297,62.75 298,63.50 299,64.25 300,65.00 301,65.75 302,66.50 303,67.25 304,68.00 305,68.75 306,69.50 307,70.25 308,71.00 309,71.75 310,72.50 311,73.25 312,74.00 313,74.75 314,75.50 315,76.25 316,77.00 317,77.75 318,78.50 319,79.25 320,80.00 321,80.75 322,81.50 323,82.25 324,83.00 325,83.75 326,84.50 327,85.25 328,86.00 329,86.75 330,87.50 331,88.25 332,89.00 333,89.75 334,90.50 335,91.25 336,92.00 337,92.75 338,93.50 339,94.25 340,95.00 341,95.75 342,96.50 343,97.25 344,98.00 345,98.75 346,99.50 347,100.25 348,101.00 349,101.75 350,102.50 351,103.25 352,104.00 353,104.75 354,105.50 355,106.25 356,107.00 357,107.75 358,108.50 359,109.25 360,110.00 361,110.75 362,111.50 363,112.25 364,113.00 365,113.75 366,114.50 367,115.25 368,116.00 369,116.75 370,117.50 371,118.25 372,119.00 373,119.75 374,120.50 375,121.25 376,122.00 377,122.75 378,123.50 379,124.25 380,125.00 381,125.75 382,126.50 383,127.25 384,128.00 385,128.75 386,129.50 387,130.25 388,131.00 389,131.75 390,132.50 391,133.25 392,134.00 393,134.75 394,135.50 395,136.25 396,137.00 397,137.75 398,138.50 399,139.25 400,140.00 401,140.75 402,141.50 403,142.25 404,143.00 405,143.75 406,144.50 407,145.25 408,146.00 409,146.75 410,147.50 411,148.25 412,149.00 413,149.75 414,150.50 415,151.25 416,152.00 417,152.75 418,153.50 419,154.25 420,155.00 421,155.75 422,156.50 423,157.25 424,158.00 425,158.75 426,159.50 427,160.25 428,161.00 429,161.75 430,162.50 431,163.25 432,164.00 433,164.75 434,165.50 435,166.25 436,167.00 437,167.75 438,168.50 439,169.25 440,170.00 441,170.75 442,171.50 443,172.25 444,173.00 445,173.75 446,174.50 447,175.25 448,176.00 449,176.75 450,177.50 451,178.25 452,179.00 453,179.75 454,180.50 455,181.25 456,182.00 457,182.75 458,183.50 459,184.25 460,185.00 461,185.75 462,186.50 463,187.25 464,188.00 465,188.75 466,189.50 467,190.25 468,191.00 469,191.75 470,192.50 471,193.25 472,194.00 473,194.75 474,195.50 475,196.25 476,197.00 477,197.75 478,198.50 479,199.25 480,200.00 481,200.75 482,201.50 483,202.25 484,203.00 485,203.75 486,204.50 487,205.25 488,206.00 489,206.75 490,207.50 491,208.25 492,209.00 493,209.75 494,210.50 495,211.25 496,212.00 497,212.75 498,213.50 499,214.25 500,215.00 501,215.75 502,216.50 503,217.25 504,218.00 505,218.75 506,219.50 507,220.25 508,221.00 509,221.75 510,222.50 511,223.25 512,224.00" stroke="#BF616A" stroke-width="5" fill="none"/>

</svg>
